<?xml version="1.0" encoding="iso-8859-1"?>
<!-- Uploaded to: SVG Repo, www.svgrepo.com, Generator: SVG Repo Mixer Tools -->
<svg version="1.1" id="Layer_1" xmlns="http://www.w3.org/2000/svg" xmlns:xlink="http://www.w3.org/1999/xlink" 
	 viewBox="0 0 512 512" xml:space="preserve">
<rect x="75.48" y="73.369" style="fill:#F2F2F2;" width="426.491" height="430.713"/>
<rect x="75.48" y="73.369" style="fill:#CCCCCC;" width="88.676" height="430.713"/>
<path style="fill:#EF9D3C;" d="M132.325,64.924C130.154,33.08,103.652,7.918,71.258,7.918S12.362,33.08,10.19,64.924h-0.162v373.707
	h0.162c-0.095,1.397-0.162,2.802-0.162,4.223c0,33.816,27.414,61.229,61.229,61.229s61.229-27.413,61.229-61.229
	c0-1.421-0.067-2.826-0.162-4.223h0.162V64.924H132.325z"/>
<path style="fill:#E2771E;" d="M10.19,64.924h-0.162v373.707h0.162c-0.095,1.397-0.162,2.802-0.162,4.223
	c0,24.777,14.724,46.099,35.893,55.737V13.396C25.971,22.483,11.756,41.965,10.19,64.924z"/>
<circle style="fill:#CCCCCC;" cx="71.258" cy="442.854" r="61.229"/>
<path style="fill:#E2771E;" d="M71.258,472.412c-16.298,0-29.559-13.26-29.559-29.559c0-16.298,13.26-29.559,29.559-29.559
	s29.559,13.26,29.559,29.559C100.816,459.152,87.556,472.412,71.258,472.412z"/>
<rect x="229.608" y="423.852" style="fill:#EB6836;" width="194.243" height="29.559"/>
<rect x="229.608" y="440.742" style="fill:#C74B38;" width="194.243" height="12.668"/>
<rect x="423.852" y="423.852" style="fill:#FFFEFC;" width="31.67" height="29.559"/>
<g>
	<polyline style="fill:#F7D04A;" points="229.608,423.852 178.319,439.439 229.608,453.41 	"/>
</g>
<path d="M417.518,496.165H115.245c15.357-12.693,25.159-31.879,25.159-53.311c0-0.001,0-0.002,0-0.002c0-0.001,0-0.002,0-0.002
	l-0.091-213.245c-0.002-4.372-3.546-7.914-7.918-7.914c-0.001,0-0.002,0-0.003,0c-4.374,0.002-7.916,3.548-7.914,7.921
	l0.072,169.232c-12.693-15.342-31.87-25.135-53.292-25.135c-21.432,0-40.618,9.802-53.311,25.159V66.516
	c0.07-0.343,0.118-0.695,0.143-1.054c1.899-27.829,25.253-49.627,53.169-49.627c27.829,0,51.126,21.664,53.151,49.368l0.056,130.626
	c0.002,4.372,3.546,7.914,7.918,7.914c0.001,0,0.002,0,0.003,0c4.374-0.002,7.916-3.548,7.914-7.921l-0.05-114.537h57.688
	c4.374,0,7.918-3.545,7.918-7.918c0-4.373-3.544-7.918-7.918-7.918h-57.695v-0.531c0-0.178-0.006-0.357-0.019-0.535
	C137.762,28.281,107.468,0,71.258,0C35.608,0,5.694,27.408,2.426,62.709c-0.205,0.702-0.315,1.445-0.315,2.215v377.93
	C2.111,480.981,33.13,512,71.258,512c0.471,0,346.26,0,346.26,0c4.374,0,7.918-3.545,7.918-7.918S421.891,496.165,417.518,496.165z
	 M17.946,442.854c0-29.396,23.915-53.311,53.311-53.311s53.311,23.915,53.311,53.311l0,0c0,29.396-23.915,53.311-53.311,53.311
	S17.946,472.25,17.946,442.854z"/>
<path d="M501.971,65.452H240.165c-4.374,0-7.918,3.545-7.918,7.918c0,4.373,3.544,7.918,7.918,7.918h253.889v414.878h-34.309
	c-4.374,0-7.918,3.545-7.918,7.918s3.544,7.918,7.918,7.918h42.227c4.374,0,7.918-3.545,7.918-7.918V73.369
	C509.889,68.996,506.345,65.452,501.971,65.452z"/>
<path d="M108.734,442.854c0-20.665-16.812-37.476-37.476-37.476s-37.476,16.812-37.476,37.476c0,20.665,16.812,37.476,37.476,37.476
	S108.734,463.518,108.734,442.854z M49.616,442.854c0-11.933,9.708-21.641,21.641-21.641s21.641,9.708,21.641,21.641
	c0,11.933-9.708,21.641-21.641,21.641S49.616,454.787,49.616,442.854z"/>
<path d="M229.608,415.934c-0.949,0-1.891,0.171-2.781,0.505l-50.672,15.474c-3.299,1.237-5.384,4.507-5.114,8.02
	c0.269,3.513,2.829,6.426,6.279,7.145l50.672,14.085c0.531,0.111,1.073,0.167,1.614,0.167h225.913c4.374,0,7.918-3.545,7.918-7.918
	v-29.559c0-4.373-3.544-7.918-7.918-7.918H229.608V415.934z M415.934,445.493H237.526v-13.724h178.408V445.493z M221.691,435.276
	v8.397l-15.013-4.235L221.691,435.276z M447.604,445.493h-15.835v-13.724h15.835V445.493z"/>
<path d="M322.748,114.141c-3.072-2.988-7.965-2.988-11.037,0l-112.957,109.79c-1.534,1.491-2.398,3.539-2.398,5.677v154.128
	c0,4.373,3.544,7.918,7.918,7.918h225.913c4.374,0,7.918-3.545,7.918-7.918V229.608c0-2.139-0.865-4.187-2.398-5.677
	L322.748,114.141z M317.229,130.86l93.451,90.831H223.778L317.229,130.86z M342.037,375.819h-49.617v-74.953h49.617V375.819z
	 M357.872,375.819v-82.87c0-4.373-3.544-7.918-7.918-7.918h-65.452c-4.374,0-7.918,3.545-7.918,7.918v82.87H212.19V237.526h210.078
	v138.293H357.872z"/>
<path d="M317.229,214.301c14.844,0,26.92-12.076,26.92-26.92s-12.076-26.92-26.92-26.92s-26.92,12.076-26.92,26.92
	S302.385,214.301,317.229,214.301z M317.229,176.297c6.112,0,11.085,4.972,11.085,11.085s-4.972,11.085-11.085,11.085
	s-11.085-4.972-11.085-11.085S311.117,176.297,317.229,176.297z"/>
</svg>