<?xml version="1.0" encoding="iso-8859-1"?>
<!-- Uploaded to: SVG Repo, www.svgrepo.com, Generator: SVG Repo Mixer Tools -->
<svg version="1.1" id="Layer_1" xmlns="http://www.w3.org/2000/svg" xmlns:xlink="http://www.w3.org/1999/xlink" 
	 viewBox="0 0 512 512" xml:space="preserve">
<polygon style="fill:#E37E31;" points="501.556,252.801 417.07,252.801 417.07,31.28 256,31.28 235.096,256 256,480.72 
	501.556,480.72 "/>
<rect x="10.444" y="31.28" style="fill:#F5A142;" width="245.56" height="449.439"/>
<path style="fill:#FBE4A1;" d="M90.414,113.814H71.811L50.907,36.501h65.667v51.153C116.574,102.102,104.862,113.814,90.414,113.814
	z"/>
<polygon style="fill:#288FD9;" points="71.811,291.419 15.665,270.516 15.665,475.499 126.756,475.499 126.756,419.352 
	71.811,419.352 "/>
<rect x="15.665" y="36.501" style="fill:#F25F67;" width="56.146" height="254.917"/>
<path style="fill:#FBE4A1;" d="M343.081,418.621h-5.888l-20.904-51.86l20.904-51.86h5.888c25.389,0,45.973,20.582,45.973,45.973
	v11.776C389.052,398.038,368.47,418.621,343.081,418.621z"/>
<rect x="279.564" y="304.691" style="fill:#F7C02D;" width="57.628" height="124.143"/>
<rect x="415.414" y="304.691" style="fill:#8BCBF1;" width="31.331" height="124.143"/>
<polygon style="fill:#B3592B;" points="512,242.358 427.514,242.358 427.514,20.836 256,20.836 245.548,35.46 256,52.167 
	314.21,52.167 314.21,118.636 345.541,118.636 345.541,52.167 396.183,52.167 396.183,242.358 345.541,242.358 345.541,186.009 
	314.21,186.009 314.21,222.116 291.42,222.116 291.42,253.447 314.21,253.447 314.21,273.688 396.183,273.688 411.848,273.688 
	480.669,273.688 480.669,459.833 256,459.833 245.548,476.54 256,491.164 512,491.164 "/>
<polygon style="fill:#C75214;" points="31.331,459.833 31.331,216.855 166.462,216.855 166.462,355.757 197.793,355.757 
	197.793,253.447 220.583,253.447 220.583,222.116 197.793,222.116 197.793,157.592 166.462,157.592 166.462,185.525 31.331,185.525 
	31.331,52.167 166.462,52.167 166.462,90.219 197.793,90.219 197.793,52.167 256,52.167 256,20.836 0,20.836 0,491.164 256,491.164 
	256,459.833 "/>
</svg>